<?xml version="1.0" encoding="UTF-8"?>
<svg version="1.1" xmlns="http://www.w3.org/2000/svg" width="474" height="474">
<path d="M0 0 C156.42 0 312.84 0 474 0 C474 156.42 474 312.84 474 474 C317.58 474 161.16 474 0 474 C0 317.58 0 161.16 0 0 Z " fill="#FEFEFE" transform="translate(0,0)"/>
<path d="M0 0 C2.4117408 3.51155745 4 6.71394144 4 11 C5.13953125 10.855625 6.2790625 10.71125 7.453125 10.5625 C24.72306338 8.49114031 41.67848187 8.64524439 59 10 C60.98 6.37 62.96 2.74 65 -1 C70.31804278 -1.28489515 73.66273385 -0.83032504 78.69384766 1.15551758 C83.92067927 3.06951404 89.39052951 4.28806629 94.77929688 5.66210938 C106.95017254 8.8676423 114.66333061 12.41063404 121.25 23.625 C121.62987061 24.26453613 122.00974121 24.90407227 122.40112305 25.56298828 C127.16335915 33.76119387 131.09016237 42.3720726 135 51 C135.34393799 51.73468506 135.68787598 52.46937012 136.04223633 53.22631836 C138.53681173 58.6390316 140.4066819 64.09139355 142.0625 69.8125 C142.31999023 70.69196289 142.57748047 71.57142578 142.84277344 72.47753906 C143.57075623 74.98257491 144.28732886 77.49057223 145 80 C145.32355469 81.12277344 145.64710938 82.24554688 145.98046875 83.40234375 C149.7391218 97.31126797 150.57445399 111.88141504 150.86499023 126.22973633 C150.91368985 128.04834741 150.98929481 129.86641975 151.09057617 131.68286133 C151.89557743 146.38431175 151.89557743 146.38431175 148.78536987 150.67605591 C145.31871977 153.97976454 141.29770349 155.96881701 137 158 C135.73361502 158.76646936 134.47417122 159.54490451 133.23046875 160.34765625 C129.83514828 162.26106534 126.43347044 164.15593198 123 166 C122.3615918 166.34450195 121.72318359 166.68900391 121.06542969 167.04394531 C98.68784626 179 98.68784626 179 88 179 C87.45730469 178.04738281 86.91460937 177.09476563 86.35546875 176.11328125 C85.63284161 174.84633756 84.91018373 173.57941141 84.1875 172.3125 C83.83107422 171.68666016 83.47464844 171.06082031 83.10742188 170.41601562 C82.75615234 169.80048828 82.40488281 169.18496094 82.04296875 168.55078125 C81.6979834 167.94572754 81.35299805 167.34067383 80.99755859 166.71728516 C80.10670309 165.1836881 79.17509419 163.67393189 78.23828125 162.16796875 C77 160 77 160 77 158 C79.22884145 157.04090449 81.45805968 156.08270163 83.6875 155.125 C84.31333984 154.85558594 84.93917969 154.58617187 85.58398438 154.30859375 C89.03842094 152.82553722 92.50218321 151.37772516 96 150 C95.01 148.68 94.02 147.36 93 146 C87.17407168 147.6860922 81.4240921 149.53027803 75.6875 151.5 C46.61010455 161.3306843 7.93649407 162.81764804 -20.27050781 148.87792969 C-21.59807992 148.16412185 -22.91512875 147.43000309 -24.21533203 146.66748047 C-26.5641433 145.78900578 -27.70504798 146.03752462 -30 147 C-30.66 147.99 -31.32 148.98 -32 150 C-31.01 150 -30.02 150 -29 150 C-29 150.66 -29 151.32 -29 152 C-27.5459375 152.37125 -27.5459375 152.37125 -26.0625 152.75 C-21.50589822 154.03854722 -17.28158597 155.99998479 -13 158 C-14.43026961 162.97917387 -16.55811989 166.98288763 -19.3125 171.3125 C-19.69083984 171.94478516 -20.06917969 172.57707031 -20.45898438 173.22851562 C-22.18296393 175.95012802 -23.43145086 177.75763771 -26.4375 179.0390625 C-29.59667152 178.9909044 -31.75915704 178.26063248 -34.6875 177.0625 C-36.38712891 176.36833984 -36.38712891 176.36833984 -38.12109375 175.66015625 C-39.41511736 175.109242 -40.70801647 174.55568171 -42 174 C-42.73105957 173.68788574 -43.46211914 173.37577148 -44.21533203 173.05419922 C-77.17627148 158.90826036 -77.17627148 158.90826036 -86 148 C-86.71769378 145.05091983 -86.67724233 142.19148069 -86.62890625 139.16796875 C-86.63313095 138.3076152 -86.63735565 137.44726166 -86.64170837 136.56083679 C-86.64461077 133.76871366 -86.60687118 130.97924657 -86.5625 128.1875 C-86.55379883 127.23627258 -86.54509766 126.28504517 -86.53613281 125.30499268 C-86.30109119 101.29984761 -82.30801352 80.53388897 -74 58 C-73.52270465 56.64478913 -73.04605319 55.28935115 -72.5703125 53.93359375 C-69.68497209 46.15683306 -65.98672305 38.92269919 -62.0625 31.625 C-61.57233398 30.70895996 -61.08216797 29.79291992 -60.57714844 28.84912109 C-51.16892003 11.77458379 -51.16892003 11.77458379 -43.0625 9.375 C-41.86753906 9.00632813 -40.67257813 8.63765625 -39.44140625 8.2578125 C-38.75836426 8.06477539 -38.07532227 7.87173828 -37.37158203 7.67285156 C-34.55894518 6.87486647 -31.76298364 6.02708194 -28.96484375 5.1796875 C-4.68460558 -2.0957446 -4.68460558 -2.0957446 0 0 Z " fill="#5664EA" transform="translate(205,148)"/>
<path d="M0 0 C6.66399118 3.8711982 9.86687425 10.92471118 11.8828125 18.09375 C13.28703487 25.67368503 10.09478737 32.70205521 6.0078125 38.96875 C1.07128409 43.90527841 -3.54579656 46.17393396 -10.4296875 46.40625 C-16.14786445 46.31250939 -19.67999328 44.41051815 -23.77734375 40.515625 C-29.75956126 33.98956953 -31.65523283 27.82739197 -31.40234375 19.03125 C-30.62428694 11.016199 -27.18823638 6.52869749 -21.1171875 1.40625 C-14.43512183 -2.9788556 -7.24571983 -3.06877546 0 0 Z " fill="#FAFBFC" transform="translate(286.1171875,223.90625)"/>
<path d="M0 0 C5.3048002 3.79065564 9.82727435 8.87095319 10.95703125 15.3984375 C11.84216471 23.85637944 10.94408385 30.37406767 5.95703125 37.3984375 C1.38235656 42.42120106 -2.97681797 45.09182242 -9.79296875 45.7734375 C-15.80046991 45.55847983 -20.79502049 43.61219644 -25.09765625 39.375 C-30.13574894 33.24984996 -32.53114872 27.51604052 -32.296875 19.44140625 C-31.48911971 12.94208288 -28.34235106 6.25070726 -23.37109375 1.953125 C-16.12721455 -3.46430603 -8.06131944 -4.48381082 0 0 Z " fill="#F9FBFC" transform="translate(208.04296875,224.6015625)"/>
<path d="M0 0 C2.4117408 3.51155745 4 6.71394144 4 11 C5.13953125 10.855625 6.2790625 10.71125 7.453125 10.5625 C24.72306338 8.49114031 41.67848187 8.64524439 59 10 C60.98 6.37 62.96 2.74 65 -1 C71.20970773 -1.33266291 75.28264895 -0.45029331 81 2 C81 2.33 81 2.66 81 3 C79.783125 3.0825 78.56625 3.165 77.3125 3.25 C73.203533 3.75997817 70.9348415 4.97622391 68 8 C67.67 8.99 67.34 9.98 67 11 C66.01 10.01 65.02 9.02 64 8 C63.814375 8.9590625 63.814375 8.9590625 63.625 9.9375 C63.41875 10.618125 63.2125 11.29875 63 12 C60.43269226 13.28365387 58.55347003 13.13275635 55.6875 13.125 C54.74261719 13.12757813 53.79773438 13.13015625 52.82421875 13.1328125 C50 13 50 13 47.73022461 12.5 C44.60185493 11.92708566 41.67254406 11.87036831 38.4921875 11.8671875 C37.25855469 11.86589844 36.02492188 11.86460937 34.75390625 11.86328125 C33.47386719 11.86714844 32.19382813 11.87101563 30.875 11.875 C29.58722656 11.87113281 28.29945313 11.86726562 26.97265625 11.86328125 C25.74160156 11.86457031 24.51054687 11.86585938 23.2421875 11.8671875 C21.55391846 11.86887939 21.55391846 11.86887939 19.83154297 11.87060547 C16.92167664 11.87466845 16.92167664 11.87466845 14 13 C12.10529184 13.0685495 10.2083166 13.08480372 8.3125 13.0625 C7.31863281 13.05347656 6.32476562 13.04445312 5.30078125 13.03515625 C4.16189453 13.01775391 4.16189453 13.01775391 3 13 C2.71125 12.195625 2.4225 11.39125 2.125 10.5625 C1.26737432 7.8673532 1.26737432 7.8673532 -1 7 C-1 5.35 -1 3.7 -1 2 C-5.87358952 2.66892405 -10.65929922 3.49179714 -15.46484375 4.53515625 C-20.05333281 5.51374396 -24.2778973 6.24853172 -29 6 C-25.51625689 4.06747584 -21.95022066 3.01925595 -18.125 1.9375 C-16.93132812 1.59589844 -15.73765625 1.25429687 -14.5078125 0.90234375 C-4.01588754 -1.79658127 -4.01588754 -1.79658127 0 0 Z " fill="#6872CD" transform="translate(205,148)"/>
<path d="M0 0 C18.04100228 -0.55353075 18.04100228 -0.55353075 25 3 C25 3.99 25 4.98 25 6 C25.99 6.33 26.98 6.66 28 7 C28 7.66 28 8.32 28 9 C28.66 9 29.32 9 30 9 C30.495 10.98 30.495 10.98 31 13 C31.99 13 32.98 13 34 13 C34.05368354 17.31257747 34.06234126 21.62162391 34.01660156 25.93408203 C34.00111746 27.86094174 34.01128051 29.78796018 34.0234375 31.71484375 C33.81616885 39.93964046 33.81616885 39.93964046 31.55078125 42.8828125 C28.33494523 45.3243366 25.05184504 46.63165045 21 47 C21 47.66 21 48.32 21 49 C19.02 49 17.04 49 15 49 C17 47 17 47 19.875 45.6875 C23.37623314 43.79683411 24.80354298 42.29468553 27 39 C27.56074219 38.16855469 27.56074219 38.16855469 28.1328125 37.3203125 C31.97675195 30.84206489 31.99911358 23.93776792 30.52734375 16.6640625 C28.4611537 10.20567203 24.45806784 6.36559324 18.625 3.125 C11.44502354 0.89673144 6.65764899 1.73644657 0 5 C-0.99 5.33 -1.98 5.66 -3 6 C-2.67 4.68 -2.34 3.36 -2 2 C-1.34 2 -0.68 2 0 2 C0 1.34 0 0.68 0 0 Z " fill="#666DD1" transform="translate(187,221)"/>
<path d="M0 0 C0 0.66 0 1.32 0 2 C-1.24716797 2.32871094 -1.24716797 2.32871094 -2.51953125 2.6640625 C-9.31801268 4.38835479 -9.31801268 4.38835479 -14.0625 9.125 C-14.371875 10.07375 -14.68125 11.0225 -15 12 C-18 14 -18 14 -21 14 C-21.12375 14.70125 -21.2475 15.4025 -21.375 16.125 C-22.61321296 21.82077964 -24.22472598 25.53831252 -28 30 C-30.68670594 34.08846556 -32.72157907 38.47908863 -34.81640625 42.890625 C-36 45 -36 45 -38 46 C-36.07052024 38.35780785 -33.07890257 31.80559398 -29.25 24.9375 C-28.74984375 24.00873047 -28.2496875 23.07996094 -27.734375 22.12304688 C-18.19659886 4.7871655 -18.19659886 4.7871655 -8.6875 1.9375 C-7.47449219 1.55464844 -6.26148438 1.17179688 -5.01171875 0.77734375 C-2 0 -2 0 0 0 Z " fill="#656AD0" transform="translate(172,155)"/>
<path d="M0 0 C6.20970773 -0.33266291 10.28264895 0.54970669 16 3 C16 3.33 16 3.66 16 4 C14.783125 4.0825 13.56625 4.165 12.3125 4.25 C8.203533 4.75997817 5.9348415 5.97622391 3 9 C2.67 9.99 2.34 10.98 2 12 C1.01 11.01 0.02 10.02 -1 9 C-1.12375 9.639375 -1.2475 10.27875 -1.375 10.9375 C-1.58125 11.618125 -1.7875 12.29875 -2 13 C-6.83295499 15.41647749 -13.65467221 14.36483465 -18.6875 13 C-19.8321875 12.505 -19.8321875 12.505 -21 12 C-21 11.67 -21 11.34 -21 11 C-16.05 11 -11.1 11 -6 11 C-4.02 7.37 -2.04 3.74 0 0 Z " fill="#5964E3" transform="translate(270,147)"/>
<path d="M0 0 C0.66 0 1.32 0 2 0 C2.02686553 1.97909398 2.04633375 3.95828971 2.0625 5.9375 C2.07410156 7.03964844 2.08570312 8.14179688 2.09765625 9.27734375 C2 12 2 12 1 13 C0.90731001 14.35094982 0.88252674 15.70667091 0.88647461 17.06079102 C0.88655014 17.92160782 0.88662567 18.78242462 0.88670349 19.66932678 C0.89186478 20.60473801 0.89702606 21.54014923 0.90234375 22.50390625 C0.9037587 23.45692123 0.90517365 24.40993622 0.90663147 25.39183044 C0.91224848 28.44875165 0.92480384 31.50560077 0.9375 34.5625 C0.94251281 36.62955624 0.94707609 38.69661362 0.95117188 40.76367188 C0.96222344 45.84247588 0.97949945 50.9212257 1 56 C2.98 56.66 4.96 57.32 7 58 C6.67 58.99 6.34 59.98 6 61 C4.85050412 60.21366078 3.70551011 59.42073742 2.5625 58.625 C1.92441406 58.18414062 1.28632812 57.74328125 0.62890625 57.2890625 C-1 56 -1 56 -2 54 C-2.11177401 51.00520788 -2.16414053 48.03446472 -2.16796875 45.0390625 C-2.17129715 44.13811859 -2.17462555 43.23717468 -2.17805481 42.30892944 C-2.18312724 40.39394644 -2.18546304 38.47895456 -2.18530273 36.56396484 C-2.18746531 33.6713944 -2.20555045 30.77922044 -2.22460938 27.88671875 C-2.25265856 18.39129923 -2.1484887 9.29753919 0 0 Z " fill="#5963D0" transform="translate(121,242)"/>
<path d="M0 0 C9.58129322 1.52020519 17.35528925 3.61008804 24 11 C25.52966733 13.25468021 26.94621031 15.46537963 28.3125 17.8125 C28.69059814 18.45614502 29.06869629 19.09979004 29.45825195 19.76293945 C32.30839142 24.67944484 35.05424148 29.65160365 37.6875 34.6875 C38.05077393 35.35821533 38.41404785 36.02893066 38.78833008 36.7199707 C41.1825138 41.43447695 41.1825138 41.43447695 40.20703125 44.45703125 C39.80871094 44.96621094 39.41039062 45.47539062 39 46 C37 39.25 37 39.25 37 37 C36.01 37 35.02 37 34 37 C33.649375 35.783125 33.29875 34.56625 32.9375 33.3125 C30.79318901 26.84863946 27.57289714 20.78551055 24 15 C23.34 14.67 22.68 14.34 22 14 C22 13.34 22 12.68 22 12 C21.34 12 20.68 12 20 12 C19.7525 11.38125 19.505 10.7625 19.25 10.125 C17.44568586 7.05766596 15.54634188 6.41632281 12.171875 5.5078125 C10.79622005 5.16652406 9.41853979 4.83330714 8.0390625 4.5078125 C5.30461561 3.82681998 2.65838553 2.93043494 0 2 C0 1.34 0 0.68 0 0 Z " fill="#666CCE" transform="translate(298,154)"/>
<path d="M0 0 C2.73619414 0.52542859 5.29016904 1.42449956 7.890625 2.41015625 C8.59960938 2.67763672 9.30859375 2.94511719 10.0390625 3.22070312 C10.76867187 3.49849609 11.49828125 3.77628906 12.25 4.0625 C13.36761719 4.48499023 13.36761719 4.48499023 14.5078125 4.91601562 C16.33929393 5.6086913 18.16974923 6.30407907 20 7 C20 7.33 20 7.66 20 8 C17.03 7.67 14.06 7.34 11 7 C11.33 8.65 11.66 10.3 12 12 C7.96479403 10.41037341 3.98188718 8.71767682 0 7 C0 6.34 0 5.68 0 5 C-0.99 5 -1.98 5 -3 5 C-1.125 1.125 -1.125 1.125 0 0 Z " fill="#F2F8FB" transform="translate(176,293)"/>
<path d="M0 0 C1.65234375 1.328125 1.65234375 1.328125 2.65234375 4.328125 C1.19696807 5.16661304 -0.26205998 5.99876434 -1.72265625 6.828125 C-2.94082031 7.52421875 -2.94082031 7.52421875 -4.18359375 8.234375 C-6.34765625 9.328125 -6.34765625 9.328125 -8.34765625 9.328125 C-8.67765625 8.668125 -9.00765625 8.008125 -9.34765625 7.328125 C-11.47342407 6.86161293 -11.47342407 6.86161293 -13.91015625 6.703125 C-14.73644531 6.62835938 -15.56273437 6.55359375 -16.4140625 6.4765625 C-17.05214844 6.42757813 -17.69023437 6.37859375 -18.34765625 6.328125 C-15.26524579 4.27318469 -12.34150793 2.96468709 -8.91015625 1.578125 C-7.21052734 0.87429688 -7.21052734 0.87429688 -5.4765625 0.15625 C-2.34765625 -0.671875 -2.34765625 -0.671875 0 0 Z " fill="#F7FBF9" transform="translate(298.34765625,293.671875)"/>
<path d="M0 0 C10.55555556 1.50793651 10.55555556 1.50793651 13.421875 4.46875 C15.22882274 6.22202602 16.69269887 6.81882466 19.0625 7.625 C21.12612616 8.33977554 23.04484255 9.02242128 25 10 C27.37402501 10.07116382 29.75000677 10.08409085 32.125 10.0625 C33.40632813 10.05347656 34.68765625 10.04445313 36.0078125 10.03515625 C36.99523437 10.02355469 37.98265625 10.01195312 39 10 C38.01 11.65 37.02 13.3 36 15 C30.45969161 14.44234804 25.91619672 12.9986311 20.8125 10.8125 C20.07652588 10.50368896 19.34055176 10.19487793 18.58227539 9.87670898 C12.2488988 7.18462814 6.09142591 4.20416045 0 1 C0 0.67 0 0.34 0 0 Z " fill="#6C73D2" transform="translate(144,312)"/>
<path d="M0 0 C1.65 0 3.3 0 5 0 C-3.96238942 7.09435041 -18.39053516 14 -30 14 C-30.66 12.35 -31.32 10.7 -32 9 C-31.030625 9.20625 -30.06125 9.4125 -29.0625 9.625 C-24.43495723 10.28874856 -20.45207399 9.22842815 -16 8 C-14.94619141 7.71189453 -14.94619141 7.71189453 -13.87109375 7.41796875 C-12.24297315 6.96077933 -10.62072026 6.48276774 -9 6 C-9 5.34 -9 4.68 -9 4 C-6.03 3.34 -3.06 2.68 0 2 C0 1.34 0 0.68 0 0 Z " fill="#656DC7" transform="translate(323,313)"/>
<path d="M0 0 C0.66 0.66 1.32 1.32 2 2 C1.67 2.99 1.34 3.98 1 5 C-1.09032622 12.48908241 -0.20483945 19.00644348 3 26 C6.64572028 31.68303456 10.87177321 33.73028637 17 36 C14 38 14 38 11.80859375 37.609375 C10.63490234 37.18398438 10.63490234 37.18398438 9.4375 36.75 C8.65246094 36.47671875 7.86742187 36.2034375 7.05859375 35.921875 C5 35 5 35 3 33 C2.87625 32.29875 2.7525 31.5975 2.625 30.875 C2.12102867 27.78075339 2.12102867 27.78075339 -0.0625 24.6875 C-2.27510048 20.49562781 -2.37865854 16.39791704 -2.375 11.75 C-2.37705444 10.70332153 -2.37705444 10.70332153 -2.37915039 9.63549805 C-2.30059743 5.95238473 -2.016746 3.12998979 0 0 Z " fill="#6168D1" transform="translate(177,233)"/>
<path d="M0 0 C9.01128257 -0.57682463 15.58528184 -0.49238382 23 5 C23 5.66 23 6.32 23 7 C23.66 7 24.32 7 25 7 C25.66 8.65 26.32 10.3 27 12 C27.66 12 28.32 12 29 12 C29.33 15.3 29.66 18.6 30 22 C29.34 20.68 28.68 19.36 28 18 C27.1995939 16.45201989 26.38670748 14.91043948 25.5625 13.375 C25.15128906 12.59898437 24.74007813 11.82296875 24.31640625 11.0234375 C23.00705436 8.71946253 23.00705436 8.71946253 20 7 C20 6.34 20 5.68 20 5 C12.19028529 2.76865294 5.79890489 1.88043804 -2 5 C-2 4.34 -2 3.68 -2 3 C-1.34 3 -0.68 3 0 3 C0 2.01 0 1.02 0 0 Z " fill="#696ED2" transform="translate(268,220)"/>
<path d="M0 0 C0.66 0.33 1.32 0.66 2 1 C2 1.66 2 2.32 2 3 C-1.6678852 4.96189209 -4.87248551 6.39301257 -9 7 C-9 10.3 -9 13.6 -9 17 C-12.51788291 13.95116815 -13.65928347 11.40866248 -15 7 C-14.00097656 6.57847656 -13.00195312 6.15695312 -11.97265625 5.72265625 C-10.66921692 5.16939783 -9.36583443 4.61600549 -8.0625 4.0625 C-7.0734668 3.64581055 -7.0734668 3.64581055 -6.06445312 3.22070312 C-2.79531504 1.99207117 -2.79531504 1.99207117 0 0 Z " fill="#6A75E1" transform="translate(297,299)"/>
<path d="M0 0 C0.33 0 0.66 0 1 0 C1 1.98 1 3.96 1 6 C-7.1507252 10.85908618 -13.4007955 11.7136955 -23 11 C-25.41722728 10.25623776 -26.90188146 9.43870986 -29 8 C-28.67 7.34 -28.34 6.68 -28 6 C-27.195625 6.495 -26.39125 6.99 -25.5625 7.5 C-19.81517963 9.91992436 -15.15383932 9.68204912 -9.25 7.8125 C-5.8543749 5.918786 -3.58262409 3.88646222 -1 1 C-0.67 0.67 -0.34 0.34 0 0 Z " fill="#626BCA" transform="translate(293,260)"/>
<path d="M0 0 C1.00312353 4.01249413 0.96381672 6.05711342 0 10 C-4.83295499 12.41647749 -11.65467221 11.36483465 -16.6875 10 C-17.8321875 9.505 -17.8321875 9.505 -19 9 C-19 8.67 -19 8.34 -19 8 C-14.05 8 -9.1 8 -4 8 C-2.68 5.36 -1.36 2.72 0 0 Z " fill="#666BD6" transform="translate(268,150)"/>
<path d="M0 0 C0.66 0 1.32 0 2 0 C2.02686553 1.97909398 2.04633375 3.95828971 2.0625 5.9375 C2.07410156 7.03964844 2.08570312 8.14179688 2.09765625 9.27734375 C2 12 2 12 1 13 C0.60333773 15.18019479 0.25684763 17.3696463 -0.0625 19.5625 C-0.32740234 21.35880859 -0.32740234 21.35880859 -0.59765625 23.19140625 C-0.73042969 24.11824219 -0.86320312 25.04507812 -1 26 C-1.33 26 -1.66 26 -2 26 C-2.23737365 17.08530089 -1.79362465 8.74392018 0 0 Z " fill="#6770D1" transform="translate(121,242)"/>
<path d="M0 0 C2.2424735 2.2424735 2.52828328 3.34213079 3.2890625 6.359375 C3.50820313 7.22820312 3.72734375 8.09703125 3.953125 8.9921875 C4.17484375 9.90226563 4.3965625 10.81234375 4.625 11.75 C4.85445313 12.64460937 5.08390625 13.53921875 5.3203125 14.4609375 C7.51521247 23.31892668 7.51521247 23.31892668 7 28 C6.34 28.66 5.68 29.32 5 30 C4.80664062 28.87722656 4.61328125 27.75445312 4.4140625 26.59765625 C2.79591494 17.10661773 2.79591494 17.10661773 0.8125 7.6875 C0 4 0 4 0 0 Z " fill="#6871D2" transform="translate(346,218)"/>
<path d="M0 0 C-1 3 -1 3 -2.6875 4.1875 C-5.54969093 5.19313465 -7.98827908 5.13689641 -11 5 C-11 4.34 -11 3.68 -11 3 C-11.66 2.67 -12.32 2.34 -13 2 C-8.22169095 -0.91360308 -5.44893869 -1.19876651 0 0 Z " fill="#EBF6F6" transform="translate(333,315)"/>
<path d="M0 0 C1.23322685 3.81633713 0.42063966 5.74939418 -1.09765625 9.4296875 C-2.97875599 14.78797161 -3.89864482 20.43854687 -5 26 C-7 23 -7 23 -6.81640625 19.83984375 C-5.90233428 15.54064403 -4.54583903 11.64118807 -2.9375 7.5625 C-2.65583984 6.83095703 -2.37417969 6.09941406 -2.08398438 5.34570312 C-1.39586753 3.56126454 -0.69885394 1.78026095 0 0 Z " fill="#6770D1" transform="translate(132,204)"/>
<path d="M0 0 C4.75 0.75 4.75 0.75 7 3 C1.65739516 5.72813864 -2.97809337 6.89861785 -9 6 C-9.99 5.34 -10.98 4.68 -12 4 C-8.7 4 -5.4 4 -2 4 C-1.34 2.68 -0.68 1.36 0 0 Z " fill="#ECF6F4" transform="translate(280,264)"/>
<path d="M0 0 C0.33 0 0.66 0 1 0 C1.01417969 0.59425781 1.02835938 1.18851563 1.04296875 1.80078125 C1.45940126 9.03770305 3.69955628 14.59397271 7 21 C5.35 21.33 3.7 21.66 2 22 C1.65820312 18.97265625 1.65820312 18.97265625 1.31640625 15.9453125 C1.08707039 13.92595684 1.08707039 13.92595684 0 12 C-0.07065617 9.95944995 -0.08421976 7.91665743 -0.0625 5.875 C-0.05347656 4.77929688 -0.04445312 3.68359375 -0.03515625 2.5546875 C-0.02355469 1.71164063 -0.01195312 0.86859375 0 0 Z " fill="#6871CE" transform="translate(254,242)"/>
<path d="M0 0 C1.94024048 0.07069702 1.94024048 0.07069702 3.91967773 0.14282227 C4.9496714 0.17823875 4.9496714 0.17823875 6.00047302 0.21437073 C8.20160776 0.29117032 10.40240492 0.37512354 12.60327148 0.45922852 C14.09218705 0.51243295 15.58111928 0.56517344 17.07006836 0.61743164 C20.72717821 0.74680703 24.3840182 0.8826009 28.04077148 1.02172852 C28.04077148 1.35172852 28.04077148 1.68172852 28.04077148 2.02172852 C23.96616487 2.21425358 19.89120936 2.39293229 15.81542969 2.55883789 C14.42919674 2.61721242 13.04311726 2.67935875 11.65722656 2.74536133 C9.66442636 2.83961057 7.67094745 2.91914631 5.67749023 2.99829102 C3.8786438 3.07684326 3.8786438 3.07684326 2.04345703 3.15698242 C-0.95922852 3.02172852 -0.95922852 3.02172852 -3.95922852 1.02172852 C-2.95922852 0.02172852 -2.95922852 0.02172852 0 0 Z " fill="#CFD9FA" transform="translate(219.959228515625,304.978271484375)"/>
<path d="M0 0 C0.12375 0.639375 0.2475 1.27875 0.375 1.9375 C0.58125 2.618125 0.7875 3.29875 1 4 C1.66 4.33 2.32 4.66 3 5 C3 4.34 3 3.68 3 3 C4.98 2.67 6.96 2.34 9 2 C3.85714286 6.42857143 3.85714286 6.42857143 0 7 C-0.33 6.34 -0.66 5.68 -1 5 C-3.12576782 4.53348793 -3.12576782 4.53348793 -5.5625 4.375 C-6.38878906 4.30023438 -7.21507812 4.22546875 -8.06640625 4.1484375 C-8.70449219 4.09945313 -9.34257812 4.05046875 -10 4 C-6.86268382 1.90845588 -3.85464592 0 0 0 Z " fill="#DCE1FB" transform="translate(290,296)"/>
<path d="M0 0 C-3.05107089 3.05107089 -6.7825311 3.56351206 -10.875 4.6875 C-12.09896484 5.04424805 -12.09896484 5.04424805 -13.34765625 5.40820312 C-14.13785156 5.62798828 -14.92804688 5.84777344 -15.7421875 6.07421875 C-16.4626123 6.27619873 -17.18303711 6.47817871 -17.92529297 6.6862793 C-20.24284779 7.03672151 -21.78573713 6.71241772 -24 6 C-23.04738281 5.73445313 -22.09476562 5.46890625 -21.11328125 5.1953125 C-19.85902344 4.84210938 -18.60476563 4.48890625 -17.3125 4.125 C-16.07113281 3.77695312 -14.82976562 3.42890625 -13.55078125 3.0703125 C-10.09424682 2.08746434 -10.09424682 2.08746434 -7.21875 0.875 C-4.67988584 -0.1262422 -2.70504131 -0.15457379 0 0 Z " fill="#6167C6" transform="translate(288,296)"/>
<path d="M0 0 C0.42410156 0.39832031 0.84820312 0.79664063 1.28515625 1.20703125 C5.32767445 4.85862461 8.88650302 7.12157254 14 9 C11 11 11 11 8.80859375 10.609375 C8.02613281 10.32578125 7.24367187 10.0421875 6.4375 9.75 C5.65246094 9.47671875 4.86742187 9.2034375 4.05859375 8.921875 C2 8 2 8 0 6 C-0.125 2.875 -0.125 2.875 0 0 Z " fill="#6868DA" transform="translate(180,260)"/>
<path d="M0 0 C0.66 0.99 1.32 1.98 2 3 C1.3203125 6.13671875 1.3203125 6.13671875 0.125 9.6875 C-0.26429688 10.86699219 -0.65359375 12.04648438 -1.0546875 13.26171875 C-1.36664063 14.16535156 -1.67859375 15.06898438 -2 16 C-2.33 16 -2.66 16 -3 16 C-3.33266291 9.79029227 -2.45029331 5.71735105 0 0 Z " fill="#DADFFB" transform="translate(179,234)"/>
<path d="M0 0 C0.66 0 1.32 0 2 0 C2.33 1.32 2.66 2.64 3 4 C3.99 4 4.98 4 6 4 C6 8.95 6 13.9 6 19 C5.67 19 5.34 19 5 19 C4.731875 17.72125 4.46375 16.4425 4.1875 15.125 C3.0548104 9.99937583 1.56798699 5.00710512 0 0 Z " fill="#5B66CD" transform="translate(215,230)"/>
<path d="M0 0 C0.66 1.32 1.32 2.64 2 4 C-0.31 6.97 -2.62 9.94 -5 13 C-5.66 12.67 -6.32 12.34 -7 12 C-4.69 8.04 -2.38 4.08 0 0 Z " fill="#E7EFFC" transform="translate(190,310)"/>
<path d="M0 0 C0.99 0.33 1.98 0.66 3 1 C2.525625 2.155 2.05125 3.31 1.5625 4.5 C-0.02208768 8.68570332 -0.60289195 12.55238986 -1 17 C-3 15 -3 15 -3.046875 13.046875 C-2.4566172 8.48014361 -1.66464929 4.32808816 0 0 Z " fill="#5A64D3" transform="translate(255,233)"/>
<path d="M0 0 C2.375 0.1875 2.375 0.1875 5 1 C6.3125 3.5625 6.3125 3.5625 7 6 C7.66 6 8.32 6 9 6 C9.33 9.3 9.66 12.6 10 16 C9.34 14.68 8.68 13.36 8 12 C7.19834756 10.47342093 6.38547231 8.95269202 5.5625 7.4375 C5.15128906 6.67308594 4.74007813 5.90867188 4.31640625 5.12109375 C3.05665646 3.0912892 1.7577113 1.60397562 0 0 Z " fill="#6C78CF" transform="translate(288,226)"/>
<path d="M0 0 C6.20970773 -0.33266291 10.28264895 0.54970669 16 3 C16 3.33 16 3.66 16 4 C10.39 3.67 4.78 3.34 -1 3 C-0.67 2.01 -0.34 1.02 0 0 Z " fill="#787DD1" transform="translate(270,147)"/>
<path d="M0 0 C6.80485441 -0.75609493 12.12211281 1.64411285 18 5 C18.33 5.66 18.66 6.32 19 7 C17.39402675 6.54803755 15.79027492 6.08817673 14.1875 5.625 C13.29417969 5.36976563 12.40085938 5.11453125 11.48046875 4.8515625 C9 4 9 4 6 2 C4.0103005 1.60986284 2.00980131 1.26797351 0 1 C0 0.67 0 0.34 0 0 Z " fill="#6D73CE" transform="translate(173,292)"/>
<path d="M0 0 C2.8992226 0.46761655 3.86675182 0.86675182 6 3 C5.01 3.66 4.02 4.32 3 5 C2.67 5.66 2.34 6.32 2 7 C1.34 7 0.68 7 0 7 C0 6.34 0 5.68 0 5 C-0.99 5 -1.98 5 -3 5 C-1.125 1.125 -1.125 1.125 0 0 Z " fill="#DDE9FD" transform="translate(176,293)"/>
<path d="M0 0 C2.875 -0.125 2.875 -0.125 6 0 C6.66 0.66 7.32 1.32 8 2 C8.99 2.66 9.98 3.32 11 4 C10.67 4.99 10.34 5.98 10 7 C5.93184627 5.15083921 2.9905167 3.33557632 0 0 Z " fill="#6B71D5" transform="translate(132,305)"/>
<path d="M0 0 C7.75 0.875 7.75 0.875 10 2 C10 2.99 10 3.98 10 5 C10.99 5.33 11.98 5.66 13 6 C12.67 6.99 12.34 7.98 12 9 C11.319375 8.236875 10.63875 7.47375 9.9375 6.6875 C6.64101475 3.67156669 4.13693165 2.54120983 0 1 C0 0.67 0 0.34 0 0 Z " fill="#7078CD" transform="translate(202,222)"/>
<path d="M0 0 C0.66 0 1.32 0 2 0 C0.54955729 4.10958767 -1.51110752 7.43258745 -4 11 C-4.6875 9.3125 -4.6875 9.3125 -5 7 C-3.6875 4.25 -3.6875 4.25 -2 2 C-1.34 2 -0.68 2 0 2 C0 1.34 0 0.68 0 0 Z " fill="#5E6ACA" transform="translate(188,310)"/>
<path d="M0 0 C1.875 0.25 1.875 0.25 4 1 C6.11103658 3.95545121 6.19785783 6.43855901 6 10 C2.51668565 6.98112756 1.20842856 4.43090471 0 0 Z " fill="#646DC4" transform="translate(282,306)"/>
<path d="M0 0 C0.66 0 1.32 0 2 0 C2.33 1.98 2.66 3.96 3 6 C4.98 6.66 6.96 7.32 9 8 C8.67 8.99 8.34 9.98 8 11 C1.29540481 7.04376368 1.29540481 7.04376368 0.0625 2.6875 C0.041875 1.800625 0.02125 0.91375 0 0 Z " fill="#6D78C8" transform="translate(119,292)"/>
<path d="M0 0 C1.32 0.33 2.64 0.66 4 1 C0.7 3.31 -2.6 5.62 -6 8 C-6.33 7.01 -6.66 6.02 -7 5 C-6.01 5 -5.02 5 -4 5 C-4 4.34 -4 3.68 -4 3 C-2.68 2.67 -1.36 2.34 0 2 C0 1.34 0 0.68 0 0 Z " fill="#636CC7" transform="translate(348,298)"/>
<path d="M0 0 C0.66 1.32 1.32 2.64 2 4 C1.01 5.485 1.01 5.485 0 7 C-0.45772063 9.73872955 -0.45772063 9.73872955 -0.625 12.6875 C-0.69976562 13.68136719 -0.77453125 14.67523438 -0.8515625 15.69921875 C-0.90054687 16.45847656 -0.94953125 17.21773437 -1 18 C-1.33 18 -1.66 18 -2 18 C-2.3690205 5.33029613 -2.3690205 5.33029613 0 0 Z " fill="#CFD8FB" transform="translate(257,234)"/>
<path d="M0 0 C3.3 1.65 6.6 3.3 10 5 C9.67 5.66 9.34 6.32 9 7 C5.04 5.35 1.08 3.7 -3 2 C-2.01 1.34 -1.02 0.68 0 0 Z " fill="#6269C8" transform="translate(281,220)"/>
<path d="M0 0 C-0.33 0.99 -0.66 1.98 -1 3 C-7.435 3.495 -7.435 3.495 -14 4 C-9.15584557 1.57792279 -5.44453532 0 0 0 Z " fill="#6C76D4" transform="translate(190,150)"/>
<path d="M0 0 C0 0.66 0 1.32 0 2 C-1.57914015 2.53341184 -3.16354387 3.05125763 -4.75 3.5625 C-5.63171875 3.85253906 -6.5134375 4.14257812 -7.421875 4.44140625 C-10.07834316 5.01697435 -11.47031106 4.89248371 -14 4 C-12.0429132 3.32968281 -10.08428887 2.66385317 -8.125 2 C-7.03445312 1.62875 -5.94390625 1.2575 -4.8203125 0.875 C-2 0 -2 0 0 0 Z " fill="#6E76CA" transform="translate(172,155)"/>
<path d="M0 0 C2.0625 0.75 2.0625 0.75 4 2 C4.33 2.99 4.66 3.98 5 5 C1.7 4.34 -1.6 3.68 -5 3 C-2 1 -2 1 0 0 Z " fill="#DCE7FD" transform="translate(296,293)"/>
<path d="M0 0 C1.32 0 2.64 0 4 0 C3.01 3.96 2.02 7.92 1 12 C0.67 12 0.34 12 0 12 C0 8.04 0 4.08 0 0 Z " fill="#DFEBFD" transform="translate(124,216)"/>
<path d="M0 0 C-0.99 1.32 -1.98 2.64 -3 4 C-5.4375 3.625 -5.4375 3.625 -8 3 C-8.33 2.34 -8.66 1.68 -9 1 C-2.25 -1.125 -2.25 -1.125 0 0 Z " fill="#6B6FBF" transform="translate(183,323)"/>
<path d="M0 0 C-0.66 0 -1.32 0 -2 0 C-2 0.66 -2 1.32 -2 2 C-5.69541586 2.95024979 -8.30458414 2.95024979 -12 2 C-12 1.67 -12 1.34 -12 1 C-3.96428571 -1.27678571 -3.96428571 -1.27678571 0 0 Z " fill="#D5DDF4" transform="translate(280,301)"/>
<path d="M0 0 C0.66 0.33 1.32 0.66 2 1 C1.34 4.3 0.68 7.6 0 11 C-0.99 10.67 -1.98 10.34 -3 10 C-2.01 6.7 -1.02 3.4 0 0 Z " fill="#6372D1" transform="translate(297,250)"/>
<path d="M0 0 C0.99 0.495 0.99 0.495 2 1 C2.6328125 3.06640625 2.6328125 3.06640625 3.125 5.5625 C3.29257812 6.38878906 3.46015625 7.21507812 3.6328125 8.06640625 C3.75398438 8.70449219 3.87515625 9.34257812 4 10 C3.01 9.67 2.02 9.34 1 9 C0.67 6.03 0.34 3.06 0 0 Z " fill="#6670CD" transform="translate(339,199)"/>
<path d="M0 0 C0.95178554 2.56982095 1.00609339 3.97088712 0.4375 6.6875 C-1 9 -1 9 -4.125 9.8125 C-5.07375 9.874375 -6.0225 9.93625 -7 10 C-6.401875 9.46375 -5.80375 8.9275 -5.1875 8.375 C-2.78684406 5.76857355 -1.45981486 3.2115927 0 0 Z " fill="#7078CB" transform="translate(268,150)"/>
<path d="M0 0 C2.40072955 2.88087546 4.47291037 5.56404834 6 9 C5.01 9 4.02 9 3 9 C2.34 8.34 1.68 7.68 1 7 C0.34 7 -0.32 7 -1 7 C-0.67 4.69 -0.34 2.38 0 0 Z " fill="#DAE1F9" transform="translate(285,313)"/>
<path d="M0 0 C2.97 0.33 5.94 0.66 9 1 C9.33 2.32 9.66 3.64 10 5 C5 3 5 3 0 1 C0 0.67 0 0.34 0 0 Z " fill="#D4DFFA" transform="translate(178,300)"/>
<path d="M0 0 C3.3 0.66 6.6 1.32 10 2 C9.67 2.66 9.34 3.32 9 4 C5.7 3.34 2.4 2.68 -1 2 C-0.67 1.34 -0.34 0.68 0 0 Z " fill="#7275D1" transform="translate(194,298)"/>
<path d="M0 0 C1.67542976 0.28604898 3.34385343 0.61781233 5 1 C2.02534237 2.70754834 -0.13860832 3.27317355 -3.5625 3.25 C-4.70912109 3.25773437 -4.70912109 3.25773437 -5.87890625 3.265625 C-8 3 -8 3 -11 1 C-10.28972656 1.01160156 -9.57945312 1.02320313 -8.84765625 1.03515625 C-7.92855469 1.04417969 -7.00945312 1.05320312 -6.0625 1.0625 C-4.68771484 1.07990234 -4.68771484 1.07990234 -3.28515625 1.09765625 C-1.03406673 1.25949049 -1.03406673 1.25949049 0 0 Z " fill="#C7D7F8" transform="translate(279,267)"/>
<path d="M0 0 C2.32472205 2.85306797 3.7508258 5.54074837 5 9 C2.525 8.01 2.525 8.01 0 7 C0 4.69 0 2.38 0 0 Z " fill="#6576C8" transform="translate(204,148)"/>
<path d="M0 0 C2.83374881 3.20336822 3.5205537 5.78087253 4 10 C-0.60921053 4.64736842 -0.60921053 4.64736842 -1 1 C-0.67 0.67 -0.34 0.34 0 0 Z " fill="#E1EFFD" transform="translate(293,232)"/>
<path d="M0 0 C2.64 0 5.28 0 8 0 C7.67 0.99 7.34 1.98 7 3 C2.25 2.25 2.25 2.25 0 0 Z " fill="#5F63F5" transform="translate(148,312)"/>
<path d="M0 0 C0.66 0.33 1.32 0.66 2 1 C2 1.66 2 2.32 2 3 C-3.75 6 -3.75 6 -6 6 C-5 3 -5 3 -2.5625 1.25 C-1.716875 0.8375 -0.87125 0.425 0 0 Z " fill="#6468D3" transform="translate(297,299)"/>
<path d="M0 0 C2.97 0.99 5.94 1.98 9 3 C8.01 3.66 7.02 4.32 6 5 C2.8125 4.125 2.8125 4.125 0 3 C0 2.01 0 1.02 0 0 Z " fill="#6D76CB" transform="translate(185,266)"/>
<path d="M0 0 C3.3 0.66 6.6 1.32 10 2 C10 2.33 10 2.66 10 3 C6.37 3 2.74 3 -1 3 C-0.67 2.01 -0.34 1.02 0 0 Z " fill="#C6D7F7" transform="translate(210,156)"/>
<path d="M0 0 C0 0.66 0 1.32 0 2 C-1.98 2 -3.96 2 -6 2 C-6 2.66 -6 3.32 -6 4 C-8.97 3.505 -8.97 3.505 -12 3 C-8.2080182 0.81231819 -4.37268114 0 0 0 Z " fill="#7478D3" transform="translate(202,147)"/>
<path d="M0 0 C0.66 0.33 1.32 0.66 2 1 C0.8125 3 0.8125 3 -1 5 C-3.6875 5.25 -3.6875 5.25 -6 5 C-4.06745228 2.9754262 -2.36841312 1.57894208 0 0 Z " fill="#DEE4FC" transform="translate(345,303)"/>
<path d="M0 0 C0.66 0 1.32 0 2 0 C2 1.98 2 3.96 2 6 C1.01 6 0.02 6 -1 6 C-1.042721 4.33388095 -1.04063832 2.66617115 -1 1 C-0.67 0.67 -0.34 0.34 0 0 Z " fill="#5D60F9" transform="translate(140,190)"/>
</svg>
