<?xml version="1.0" encoding="UTF-8"?>
<svg version="1.1" xmlns="http://www.w3.org/2000/svg" width="400" height="400">
<path d="M0 0 C1.55963684 -0.00136053 3.11927337 -0.00314407 4.6789093 -0.00531006 C8.85454687 -0.00980704 13.03015928 -0.00812723 17.2057972 -0.00493097 C21.61355778 -0.00236682 26.02131647 -0.00475605 30.42907715 -0.00631714 C37.82560607 -0.00812714 45.22212495 -0.0057634 52.61865234 -0.00097656 C61.12219533 0.00446378 69.62571432 0.0027003 78.12925673 -0.00280297 C85.4818592 -0.0073676 92.83445453 -0.00796836 100.18705797 -0.0053643 C104.55583622 -0.00381984 108.92460325 -0.00355669 113.29338074 -0.00690079 C117.40413196 -0.00982863 121.51485281 -0.00771545 125.62560081 -0.00200653 C127.11773313 -0.00070489 128.60986808 -0.00102766 130.10199928 -0.0032692 C138.08825108 -0.01414334 146.04736639 0.14069837 154.02380371 0.55545044 C155.12081911 0.60962641 155.12081911 0.60962641 156.23999643 0.66489685 C173.18495723 1.63722903 190.0206958 7.43131922 201.84570312 20.13330078 C222.15700937 45.20353627 218.62075125 77.11698588 218.59721613 107.43551135 C218.59465104 111.78408031 218.5970415 116.13264736 218.59860229 120.48121643 C218.60041223 127.77939234 218.59804895 135.07755807 218.59326172 142.37573242 C218.58782344 150.76223996 218.58958339 159.14872316 218.59508812 167.5352301 C218.59965543 174.78933525 218.60025218 182.04343316 218.59764946 189.29753929 C218.59610618 193.60654572 218.59583843 197.91554078 218.59918594 202.22454643 C218.6196208 232.97896873 218.6196208 232.97896873 218.05615234 244.32495117 C218.02266756 245.01954406 217.98918278 245.71413694 217.9546833 246.4297781 C216.83317362 264.73296314 210.15961524 280.597494 196.46289062 293.12939453 C184.10533827 302.69653184 170.53282113 306.83102489 155.15379333 307.66818237 C153.96412544 307.73306534 153.96412544 307.73306534 152.75042385 307.79925907 C144.84369625 308.20279006 136.94909494 308.27077293 129.03344727 308.25878906 C127.48528503 308.26014965 125.93712311 308.26193323 124.38896179 308.26409912 C120.24424777 308.26859574 116.09955909 308.26691634 111.95484471 308.26372004 C107.57824854 308.26115523 103.20165426 308.26354533 98.82505798 308.2651062 C91.47980365 308.26691621 84.13455943 308.26455264 76.78930664 308.25976562 C68.34826759 308.25432731 59.90725271 308.25608729 51.46621424 308.26159203 C44.16540036 308.26615909 36.86459367 308.26675621 29.56377882 308.26415336 C25.22682674 308.26260995 20.88988596 308.26234271 16.55293465 308.26568985 C-51.57391474 308.31078952 -51.57391474 308.31078952 -71.28710938 289.87939453 C-93.80498172 265.69153644 -89.69512732 231.34446881 -89.67143488 200.82327771 C-89.66886979 196.47470875 -89.67126025 192.1261417 -89.67282104 187.77757263 C-89.67463098 180.47939672 -89.6722677 173.181231 -89.66748047 165.88305664 C-89.66204219 157.49654911 -89.66380214 149.11006591 -89.66930687 140.72355896 C-89.67387418 133.46945381 -89.67447093 126.2153559 -89.67186821 118.96124977 C-89.67032493 114.65224335 -89.67005718 110.34324828 -89.67340469 106.03424263 C-89.69383955 75.27982033 -89.69383955 75.27982033 -89.13037109 63.93383789 C-89.09688631 63.239245 -89.06340153 62.54465212 -89.02890205 61.82901096 C-87.90739237 43.52582592 -81.23383399 27.66129506 -67.53710938 15.12939453 C-55.18215005 5.56426473 -41.6108296 1.42805588 -26.23474121 0.59060669 C-25.44180082 0.54735138 -24.64886043 0.50409607 -23.83189154 0.45953 C-15.88693855 0.05415885 -7.95389769 -0.01194864 0 0 Z " fill="#FE0000" transform="translate(135.537109375,45.87060546875)"/>
<path d="M0 0 C4.46058235 0.00568369 8.92110495 0.00230781 13.38168526 -0.00342178 C44.64543084 -0.03792359 44.64543084 -0.03792359 59.50366211 0.51318359 C60.41880081 0.54354706 61.33393951 0.57391052 62.27680969 0.60519409 C73.51591556 1.11199994 86.66633933 3.50848994 94.55444336 12.13037109 C98.72494477 18.26414476 99.99779302 24.67766834 100.67944336 31.91162109 C100.80388824 33.20411522 100.80388824 33.20411522 100.93084717 34.52272034 C101.83433248 44.90734004 101.85487201 55.29766506 101.81518555 65.71459961 C101.80437761 69.08839556 101.81519656 72.46166836 101.82788086 75.83544922 C101.84244819 96.96875954 101.84244819 96.96875954 99.55444336 107.13037109 C99.31951172 108.17632446 99.31951172 108.17632446 99.07983398 109.2434082 C98.66972534 110.88758305 98.17923763 112.51120288 97.67944336 114.13037109 C97.21924805 115.67724609 97.21924805 115.67724609 96.74975586 117.25537109 C94.19534147 123.39932204 90.47876013 126.29242511 84.60913086 128.99755859 C75.11132538 132.51976267 65.22598697 133.30634744 55.18725586 133.69677734 C54.16414307 133.73748856 53.14103027 133.77819977 52.08691406 133.82014465 C38.45131108 134.30656596 24.80977218 134.31753665 11.16723633 134.31567383 C8.1063034 134.3155929 5.04552122 134.3225041 1.98461914 134.33618164 C-14.4158569 134.4081485 -30.75884238 134.24193297 -47.13305664 133.24365234 C-48.44491943 133.16592087 -49.75678223 133.08818939 -51.10839844 133.00810242 C-61.87955686 132.28061846 -70.96131572 131.30279163 -79.44555664 124.13037109 C-89.03251716 112.08521557 -88.5983402 95.46453513 -88.61352539 80.80615234 C-88.61851799 79.08853951 -88.61851799 79.08853951 -88.62361145 77.33622742 C-88.6286442 74.92687376 -88.63102091 72.51751321 -88.63085938 70.1081543 C-88.63304022 66.47025754 -88.6512202 62.8326673 -88.67016602 59.19482422 C-88.7693451 19.78091985 -88.7693451 19.78091985 -78.55493164 9.16552734 C-59.43837171 -6.22556126 -23.01732748 -0.02958249 0 0 Z " fill="#FDFCFC" transform="translate(193.445556640625,132.86962890625)"/>
<path d="M0 0 C7.84909138 3.92454569 15.38970732 7.86639788 22.875 12.375 C24.78077876 13.51250864 26.68702933 14.64922717 28.59375 15.78515625 C29.51027344 16.33187988 30.42679688 16.87860352 31.37109375 17.44189453 C36.87160563 20.70194903 42.43285746 23.85541948 48 27 C48 27.66 48 28.32 48 29 C47.01386719 29.53625 46.02773437 30.0725 45.01171875 30.625 C33.84150939 36.74611987 22.87283214 43.17299164 11.95385742 49.72851562 C10.27706909 50.73108398 10.27706909 50.73108398 8.56640625 51.75390625 C7.56552979 52.35533447 6.56465332 52.9567627 5.53344727 53.57641602 C3 55 3 55 0 56 C0 37.52 0 19.04 0 0 Z " fill="#FE0202" transform="translate(181,172)"/>
</svg>
